<mxfile host="app.diagrams.net" modified="2023-07-27T14:47:46.173Z" agent="Mozilla/5.0 (Windows NT 10.0; Win64; x64) AppleWebKit/537.36 (KHTML, like Gecko) Chrome/115.0.0.0 Safari/537.36" etag="FvQ_xLMLvHvJPq0RMnKl" version="21.6.5" type="github">
  <diagram name="Page-1" id="16e2658f-23c8-b752-8be9-c03fbebb8bbe">
    <mxGraphModel dx="2074" dy="1152" grid="1" gridSize="10" guides="1" tooltips="1" connect="1" arrows="1" fold="1" page="1" pageScale="1" pageWidth="1100" pageHeight="850" background="none" math="0" shadow="0">
      <root>
        <mxCell id="0" />
        <mxCell id="1" parent="0" />
        <mxCell id="RnwgBRYVAyB-saSruq10-80" style="edgeStyle=orthogonalEdgeStyle;rounded=0;orthogonalLoop=1;jettySize=auto;html=1;exitX=1;exitY=0.25;exitDx=0;exitDy=0;entryX=0.429;entryY=0;entryDx=0;entryDy=0;entryPerimeter=0;strokeColor=#999999;" parent="1" source="RnwgBRYVAyB-saSruq10-2" target="RnwgBRYVAyB-saSruq10-26" edge="1">
          <mxGeometry relative="1" as="geometry">
            <Array as="points">
              <mxPoint x="395" y="375" />
              <mxPoint x="395" y="350" />
              <mxPoint x="520" y="350" />
            </Array>
          </mxGeometry>
        </mxCell>
        <mxCell id="RnwgBRYVAyB-saSruq10-81" style="edgeStyle=orthogonalEdgeStyle;rounded=0;orthogonalLoop=1;jettySize=auto;html=1;exitX=1;exitY=0.17;exitDx=0;exitDy=0;exitPerimeter=0;entryX=0.648;entryY=-0.027;entryDx=0;entryDy=0;entryPerimeter=0;strokeColor=#FF6666;" parent="1" source="RnwgBRYVAyB-saSruq10-2" target="RnwgBRYVAyB-saSruq10-26" edge="1">
          <mxGeometry relative="1" as="geometry">
            <Array as="points">
              <mxPoint x="320" y="351" />
              <mxPoint x="320" y="330" />
              <mxPoint x="535" y="330" />
            </Array>
          </mxGeometry>
        </mxCell>
        <mxCell id="RnwgBRYVAyB-saSruq10-84" style="edgeStyle=orthogonalEdgeStyle;rounded=0;orthogonalLoop=1;jettySize=auto;html=1;exitX=1;exitY=0.07;exitDx=0;exitDy=0;exitPerimeter=0;entryX=0.857;entryY=-0.027;entryDx=0;entryDy=0;entryPerimeter=0;strokeColor=#A39B83;" parent="1" edge="1">
          <mxGeometry relative="1" as="geometry">
            <mxPoint x="300" y="321.67" as="sourcePoint" />
            <mxPoint x="549.9899999999998" y="379.99500000000006" as="targetPoint" />
            <Array as="points">
              <mxPoint x="340" y="322" />
              <mxPoint x="340" y="291" />
              <mxPoint x="550" y="291" />
            </Array>
          </mxGeometry>
        </mxCell>
        <mxCell id="RnwgBRYVAyB-saSruq10-2" value="LattePanda" style="rounded=0;whiteSpace=wrap;html=1;rotation=0;points=[[0,0,0,0,0],[0,1,0,0,0],[0.25,0,0,0,0],[0.5,0,0,0,0],[0.75,0,0,0,0],[1,0,0,0,0],[1,0.07,0,0,0],[1,0.17,0,0,0],[1,0.25,0,0,0],[1,0.38,0,0,0],[1,0.5,0,0,0],[1,0.59,0,0,0],[1,0.68,0,0,0],[1,0.75,0,0,0],[1,0.88,0,0,0],[1,1,0,0,0]];" parent="1" vertex="1">
          <mxGeometry x="80" y="300" width="220" height="300" as="geometry" />
        </mxCell>
        <mxCell id="RnwgBRYVAyB-saSruq10-5" value="" style="rounded=0;whiteSpace=wrap;html=1;strokeColor=#007EFC;fillColor=#003366;dashed=1;fillStyle=hatch;" parent="1" vertex="1">
          <mxGeometry x="230" y="410" width="100" height="130" as="geometry" />
        </mxCell>
        <mxCell id="RnwgBRYVAyB-saSruq10-6" value="&lt;span style=&quot;font-weight: normal;&quot;&gt;&lt;font style=&quot;font-size: 12px;&quot;&gt;Arduino pins&lt;/font&gt;&lt;/span&gt;" style="text;strokeColor=none;fillColor=none;html=1;fontSize=24;fontStyle=1;verticalAlign=middle;align=center;" parent="1" vertex="1">
          <mxGeometry x="230" y="450" width="100" height="40" as="geometry" />
        </mxCell>
        <mxCell id="RnwgBRYVAyB-saSruq10-7" value="" style="rounded=0;whiteSpace=wrap;html=1;" parent="1" vertex="1">
          <mxGeometry x="490" y="380" width="70" height="160" as="geometry" />
        </mxCell>
        <mxCell id="RnwgBRYVAyB-saSruq10-25" value="" style="shape=table;startSize=0;container=1;collapsible=0;childLayout=tableLayout;fontSize=16;" parent="1" vertex="1">
          <mxGeometry x="490" y="380" width="70" height="25" as="geometry" />
        </mxCell>
        <mxCell id="RnwgBRYVAyB-saSruq10-26" value="" style="shape=tableRow;horizontal=0;startSize=0;swimlaneHead=0;swimlaneBody=0;strokeColor=inherit;top=0;left=0;bottom=0;right=0;collapsible=0;dropTarget=0;fillColor=none;points=[[0,0.5],[1,0.5]];portConstraint=eastwest;fontSize=16;" parent="RnwgBRYVAyB-saSruq10-25" vertex="1">
          <mxGeometry width="70" height="25" as="geometry" />
        </mxCell>
        <mxCell id="RnwgBRYVAyB-saSruq10-27" value="S" style="shape=partialRectangle;html=1;whiteSpace=wrap;connectable=0;strokeColor=inherit;overflow=hidden;fillColor=none;top=0;left=0;bottom=0;right=0;pointerEvents=1;fontSize=16;" parent="RnwgBRYVAyB-saSruq10-26" vertex="1">
          <mxGeometry width="18" height="25" as="geometry">
            <mxRectangle width="18" height="25" as="alternateBounds" />
          </mxGeometry>
        </mxCell>
        <mxCell id="RnwgBRYVAyB-saSruq10-52" value="G" style="shape=partialRectangle;html=1;whiteSpace=wrap;connectable=0;strokeColor=inherit;overflow=hidden;fillColor=none;top=0;left=0;bottom=0;right=0;pointerEvents=1;fontSize=16;" parent="RnwgBRYVAyB-saSruq10-26" vertex="1">
          <mxGeometry x="18" width="17" height="25" as="geometry">
            <mxRectangle width="17" height="25" as="alternateBounds" />
          </mxGeometry>
        </mxCell>
        <mxCell id="RnwgBRYVAyB-saSruq10-28" value="P" style="shape=partialRectangle;html=1;whiteSpace=wrap;connectable=0;strokeColor=inherit;overflow=hidden;fillColor=none;top=0;left=0;bottom=0;right=0;pointerEvents=1;fontSize=16;" parent="RnwgBRYVAyB-saSruq10-26" vertex="1">
          <mxGeometry x="35" width="18" height="25" as="geometry">
            <mxRectangle width="18" height="25" as="alternateBounds" />
          </mxGeometry>
        </mxCell>
        <mxCell id="RnwgBRYVAyB-saSruq10-29" value="G" style="shape=partialRectangle;html=1;whiteSpace=wrap;connectable=0;strokeColor=inherit;overflow=hidden;fillColor=none;top=0;left=0;bottom=0;right=0;pointerEvents=1;fontSize=16;" parent="RnwgBRYVAyB-saSruq10-26" vertex="1">
          <mxGeometry x="53" width="17" height="25" as="geometry">
            <mxRectangle width="17" height="25" as="alternateBounds" />
          </mxGeometry>
        </mxCell>
        <mxCell id="RnwgBRYVAyB-saSruq10-54" value="" style="shape=table;startSize=0;container=1;collapsible=0;childLayout=tableLayout;fontSize=16;" parent="1" vertex="1">
          <mxGeometry x="490" y="504" width="70" height="25" as="geometry" />
        </mxCell>
        <mxCell id="RnwgBRYVAyB-saSruq10-55" value="" style="shape=tableRow;horizontal=0;startSize=0;swimlaneHead=0;swimlaneBody=0;strokeColor=inherit;top=0;left=0;bottom=0;right=0;collapsible=0;dropTarget=0;fillColor=none;points=[[0,0.5],[1,0.5]];portConstraint=eastwest;fontSize=16;" parent="RnwgBRYVAyB-saSruq10-54" vertex="1">
          <mxGeometry width="70" height="25" as="geometry" />
        </mxCell>
        <mxCell id="RnwgBRYVAyB-saSruq10-56" value="" style="shape=partialRectangle;html=1;whiteSpace=wrap;connectable=0;strokeColor=inherit;overflow=hidden;fillColor=none;top=0;left=0;bottom=0;right=0;pointerEvents=1;fontSize=16;" parent="RnwgBRYVAyB-saSruq10-55" vertex="1">
          <mxGeometry width="18" height="25" as="geometry">
            <mxRectangle width="18" height="25" as="alternateBounds" />
          </mxGeometry>
        </mxCell>
        <mxCell id="RnwgBRYVAyB-saSruq10-57" style="shape=partialRectangle;html=1;whiteSpace=wrap;connectable=0;strokeColor=inherit;overflow=hidden;fillColor=none;top=0;left=0;bottom=0;right=0;pointerEvents=1;fontSize=16;" parent="RnwgBRYVAyB-saSruq10-55" vertex="1">
          <mxGeometry x="18" width="17" height="25" as="geometry">
            <mxRectangle width="17" height="25" as="alternateBounds" />
          </mxGeometry>
        </mxCell>
        <mxCell id="RnwgBRYVAyB-saSruq10-58" value="" style="shape=partialRectangle;html=1;whiteSpace=wrap;connectable=0;strokeColor=inherit;overflow=hidden;fillColor=none;top=0;left=0;bottom=0;right=0;pointerEvents=1;fontSize=16;" parent="RnwgBRYVAyB-saSruq10-55" vertex="1">
          <mxGeometry x="35" width="18" height="25" as="geometry">
            <mxRectangle width="18" height="25" as="alternateBounds" />
          </mxGeometry>
        </mxCell>
        <mxCell id="RnwgBRYVAyB-saSruq10-59" value="" style="shape=partialRectangle;html=1;whiteSpace=wrap;connectable=0;strokeColor=inherit;overflow=hidden;fillColor=none;top=0;left=0;bottom=0;right=0;pointerEvents=1;fontSize=16;" parent="RnwgBRYVAyB-saSruq10-55" vertex="1">
          <mxGeometry x="53" width="17" height="25" as="geometry">
            <mxRectangle width="17" height="25" as="alternateBounds" />
          </mxGeometry>
        </mxCell>
        <mxCell id="RnwgBRYVAyB-saSruq10-60" value="" style="shape=table;startSize=0;container=1;collapsible=0;childLayout=tableLayout;fontSize=16;" parent="1" vertex="1">
          <mxGeometry x="490" y="420" width="70" height="25" as="geometry" />
        </mxCell>
        <mxCell id="RnwgBRYVAyB-saSruq10-61" value="" style="shape=tableRow;horizontal=0;startSize=0;swimlaneHead=0;swimlaneBody=0;strokeColor=inherit;top=0;left=0;bottom=0;right=0;collapsible=0;dropTarget=0;fillColor=none;points=[[0,0.5],[1,0.5]];portConstraint=eastwest;fontSize=16;" parent="RnwgBRYVAyB-saSruq10-60" vertex="1">
          <mxGeometry width="70" height="25" as="geometry" />
        </mxCell>
        <mxCell id="RnwgBRYVAyB-saSruq10-62" value="" style="shape=partialRectangle;html=1;whiteSpace=wrap;connectable=0;strokeColor=inherit;overflow=hidden;fillColor=none;top=0;left=0;bottom=0;right=0;pointerEvents=1;fontSize=16;" parent="RnwgBRYVAyB-saSruq10-61" vertex="1">
          <mxGeometry width="18" height="25" as="geometry">
            <mxRectangle width="18" height="25" as="alternateBounds" />
          </mxGeometry>
        </mxCell>
        <mxCell id="RnwgBRYVAyB-saSruq10-63" value="" style="shape=partialRectangle;html=1;whiteSpace=wrap;connectable=0;strokeColor=inherit;overflow=hidden;fillColor=none;top=0;left=0;bottom=0;right=0;pointerEvents=1;fontSize=16;" parent="RnwgBRYVAyB-saSruq10-61" vertex="1">
          <mxGeometry x="18" width="17" height="25" as="geometry">
            <mxRectangle width="17" height="25" as="alternateBounds" />
          </mxGeometry>
        </mxCell>
        <mxCell id="RnwgBRYVAyB-saSruq10-64" value="" style="shape=partialRectangle;html=1;whiteSpace=wrap;connectable=0;strokeColor=inherit;overflow=hidden;fillColor=none;top=0;left=0;bottom=0;right=0;pointerEvents=1;fontSize=16;" parent="RnwgBRYVAyB-saSruq10-61" vertex="1">
          <mxGeometry x="35" width="18" height="25" as="geometry">
            <mxRectangle width="18" height="25" as="alternateBounds" />
          </mxGeometry>
        </mxCell>
        <mxCell id="RnwgBRYVAyB-saSruq10-65" value="" style="shape=partialRectangle;html=1;whiteSpace=wrap;connectable=0;strokeColor=inherit;overflow=hidden;fillColor=none;top=0;left=0;bottom=0;right=0;pointerEvents=1;fontSize=16;" parent="RnwgBRYVAyB-saSruq10-61" vertex="1">
          <mxGeometry x="53" width="17" height="25" as="geometry">
            <mxRectangle width="17" height="25" as="alternateBounds" />
          </mxGeometry>
        </mxCell>
        <mxCell id="RnwgBRYVAyB-saSruq10-66" value="" style="shape=table;startSize=0;container=1;collapsible=0;childLayout=tableLayout;fontSize=16;" parent="1" vertex="1">
          <mxGeometry x="490" y="462" width="70" height="25" as="geometry" />
        </mxCell>
        <mxCell id="RnwgBRYVAyB-saSruq10-67" value="" style="shape=tableRow;horizontal=0;startSize=0;swimlaneHead=0;swimlaneBody=0;strokeColor=inherit;top=0;left=0;bottom=0;right=0;collapsible=0;dropTarget=0;fillColor=none;points=[[0,0.5],[1,0.5]];portConstraint=eastwest;fontSize=16;" parent="RnwgBRYVAyB-saSruq10-66" vertex="1">
          <mxGeometry width="70" height="25" as="geometry" />
        </mxCell>
        <mxCell id="RnwgBRYVAyB-saSruq10-68" value="" style="shape=partialRectangle;html=1;whiteSpace=wrap;connectable=0;strokeColor=inherit;overflow=hidden;fillColor=none;top=0;left=0;bottom=0;right=0;pointerEvents=1;fontSize=16;" parent="RnwgBRYVAyB-saSruq10-67" vertex="1">
          <mxGeometry width="18" height="25" as="geometry">
            <mxRectangle width="18" height="25" as="alternateBounds" />
          </mxGeometry>
        </mxCell>
        <mxCell id="RnwgBRYVAyB-saSruq10-69" style="shape=partialRectangle;html=1;whiteSpace=wrap;connectable=0;strokeColor=inherit;overflow=hidden;fillColor=none;top=0;left=0;bottom=0;right=0;pointerEvents=1;fontSize=16;" parent="RnwgBRYVAyB-saSruq10-67" vertex="1">
          <mxGeometry x="18" width="17" height="25" as="geometry">
            <mxRectangle width="17" height="25" as="alternateBounds" />
          </mxGeometry>
        </mxCell>
        <mxCell id="RnwgBRYVAyB-saSruq10-70" value="" style="shape=partialRectangle;html=1;whiteSpace=wrap;connectable=0;strokeColor=inherit;overflow=hidden;fillColor=none;top=0;left=0;bottom=0;right=0;pointerEvents=1;fontSize=16;" parent="RnwgBRYVAyB-saSruq10-67" vertex="1">
          <mxGeometry x="35" width="18" height="25" as="geometry">
            <mxRectangle width="18" height="25" as="alternateBounds" />
          </mxGeometry>
        </mxCell>
        <mxCell id="RnwgBRYVAyB-saSruq10-71" value="" style="shape=partialRectangle;html=1;whiteSpace=wrap;connectable=0;strokeColor=inherit;overflow=hidden;fillColor=none;top=0;left=0;bottom=0;right=0;pointerEvents=1;fontSize=16;" parent="RnwgBRYVAyB-saSruq10-67" vertex="1">
          <mxGeometry x="53" width="17" height="25" as="geometry">
            <mxRectangle width="17" height="25" as="alternateBounds" />
          </mxGeometry>
        </mxCell>
        <mxCell id="RnwgBRYVAyB-saSruq10-77" value="SDI-12" style="text;strokeColor=none;fillColor=none;html=1;fontSize=10;fontStyle=0;verticalAlign=middle;align=center;" parent="1" vertex="1">
          <mxGeometry x="380" y="365" width="100" height="40" as="geometry" />
        </mxCell>
        <mxCell id="RnwgBRYVAyB-saSruq10-78" style="edgeStyle=orthogonalEdgeStyle;rounded=0;orthogonalLoop=1;jettySize=auto;html=1;exitX=0;exitY=0.5;exitDx=0;exitDy=0;entryX=1;entryY=0.75;entryDx=0;entryDy=0;strokeColor=#0088FF;" parent="1" source="RnwgBRYVAyB-saSruq10-26" target="RnwgBRYVAyB-saSruq10-5" edge="1">
          <mxGeometry relative="1" as="geometry" />
        </mxCell>
        <mxCell id="RnwgBRYVAyB-saSruq10-79" value="D8" style="text;strokeColor=none;fillColor=none;html=1;fontSize=10;fontStyle=0;verticalAlign=middle;align=center;" parent="1" vertex="1">
          <mxGeometry x="290" y="496.5" width="100" height="40" as="geometry" />
        </mxCell>
        <mxCell id="RnwgBRYVAyB-saSruq10-82" value="5V" style="text;strokeColor=none;fillColor=none;html=1;fontSize=10;fontStyle=0;verticalAlign=middle;align=center;" parent="1" vertex="1">
          <mxGeometry x="238" y="330" width="100" height="40" as="geometry" />
        </mxCell>
        <mxCell id="RnwgBRYVAyB-saSruq10-83" value="GND" style="text;strokeColor=none;fillColor=none;html=1;fontSize=10;fontStyle=0;verticalAlign=middle;align=center;" parent="1" vertex="1">
          <mxGeometry x="236" y="353" width="100" height="40" as="geometry" />
        </mxCell>
        <mxCell id="RnwgBRYVAyB-saSruq10-85" value="GND" style="text;strokeColor=none;fillColor=none;html=1;fontSize=10;fontStyle=0;verticalAlign=middle;align=center;" parent="1" vertex="1">
          <mxGeometry x="236" y="301" width="100" height="40" as="geometry" />
        </mxCell>
        <mxCell id="RnwgBRYVAyB-saSruq10-91" style="edgeStyle=orthogonalEdgeStyle;rounded=0;orthogonalLoop=1;jettySize=auto;html=1;exitX=0;exitY=0.5;exitDx=0;exitDy=0;entryX=0.25;entryY=1;entryDx=0;entryDy=0;strokeColor=#999999;" parent="1" source="RnwgBRYVAyB-saSruq10-88" target="RnwgBRYVAyB-saSruq10-5" edge="1">
          <mxGeometry relative="1" as="geometry">
            <mxPoint x="260" y="710" as="targetPoint" />
          </mxGeometry>
        </mxCell>
        <mxCell id="RnwgBRYVAyB-saSruq10-92" style="edgeStyle=orthogonalEdgeStyle;rounded=0;orthogonalLoop=1;jettySize=auto;html=1;exitX=0;exitY=0.25;exitDx=0;exitDy=0;entryX=0.5;entryY=1;entryDx=0;entryDy=0;" parent="1" source="RnwgBRYVAyB-saSruq10-88" target="RnwgBRYVAyB-saSruq10-5" edge="1">
          <mxGeometry relative="1" as="geometry" />
        </mxCell>
        <mxCell id="RnwgBRYVAyB-saSruq10-88" value="PWM" style="rounded=0;whiteSpace=wrap;html=1;" parent="1" vertex="1">
          <mxGeometry x="360" y="660" width="120" height="60" as="geometry" />
        </mxCell>
        <mxCell id="RnwgBRYVAyB-saSruq10-90" value="GND" style="text;strokeColor=none;fillColor=none;html=1;fontSize=10;fontStyle=0;verticalAlign=middle;align=center;rotation=90;" parent="1" vertex="1">
          <mxGeometry x="194" y="536.5" width="100" height="40" as="geometry" />
        </mxCell>
        <mxCell id="RnwgBRYVAyB-saSruq10-94" value="D11" style="text;strokeColor=none;fillColor=none;html=1;fontSize=10;fontStyle=0;verticalAlign=middle;align=center;rotation=90;" parent="1" vertex="1">
          <mxGeometry x="243" y="535.5" width="100" height="40" as="geometry" />
        </mxCell>
      </root>
    </mxGraphModel>
  </diagram>
</mxfile>
